PathFileType	3	(X/Y/Z)	F:\ViconData\AntennenMessung\Messung1\Session1\ID08.trc
DataRate	CameraRate	NumFrames	NumMarkers	Units	OrigDataRate	OrigDataStartFrame	OrigNumFrames
120.0	120.0	4	70	mm	120.0	466	1240	
Frame#	Time	Ashort			Along			Atop			A4			Bshort			Blong			Btop			B4			Cshort			Clong			Ctop			C4			Dshort			Dlong			Dtop			D4			Eshort			Elong			Etop			E4			Fshort			Flong			Ftop			F4			Gshort			Glong			Gtop			G4			Hshort			Hlong			Htop			H4			I1			I2			I3			I4			I5			WandAshort			WandAlong			WandAtop			WandA4			WandA15			WandBshort			WandB4			WandB5			WandBtop			WandBlong			WandCshort			WandClong			WandCtop			WandC4			WandC5			Acenter			Aantenna			Bcenter			Bantenna			Ccenter			Cantenna			Dcenter			Dantenna			Ecenter			Eantenna			Fcenter			Fantenna			Gcenter			Gantenna			Hcenter			Hantenna			Icenter			Iantenna			
		X1	Y1	Z1	X2	Y2	Z2	X3	Y3	Z3	X4	Y4	Z4	X5	Y5	Z5	X6	Y6	Z6	X7	Y7	Z7	X8	Y8	Z8	X9	Y9	Z9	X10	Y10	Z10	X11	Y11	Z11	X12	Y12	Z12	X13	Y13	Z13	X14	Y14	Z14	X15	Y15	Z15	X16	Y16	Z16	X17	Y17	Z17	X18	Y18	Z18	X19	Y19	Z19	X20	Y20	Z20	X21	Y21	Z21	X22	Y22	Z22	X23	Y23	Z23	X24	Y24	Z24	X25	Y25	Z25	X26	Y26	Z26	X27	Y27	Z27	X28	Y28	Z28	X29	Y29	Z29	X30	Y30	Z30	X31	Y31	Z31	X32	Y32	Z32	X33	Y33	Z33	X34	Y34	Z34	X35	Y35	Z35	X36	Y36	Z36	X37	Y37	Z37	X38	Y38	Z38	X39	Y39	Z39	X40	Y40	Z40	X41	Y41	Z41	X42	Y42	Z42	X43	Y43	Z43	X44	Y44	Z44	X45	Y45	Z45	X46	Y46	Z46	X47	Y47	Z47	X48	Y48	Z48	X49	Y49	Z49	X50	Y50	Z50	X51	Y51	Z51	X52	Y52	Z52	X53	Y53	Z53	X54	Y54	Z54	X55	Y55	Z55	X56	Y56	Z56	X57	Y57	Z57	X58	Y58	Z58	X59	Y59	Z59	X60	Y60	Z60	X61	Y61	Z61	X62	Y62	Z62	X63	Y63	Z63	X64	Y64	Z64	X65	Y65	Z65	X66	Y66	Z66	X67	Y67	Z67	X68	Y68	Z68	X69	Y69	Z69	X70	Y70	Z70	
466	3.875	-1038.1958	214.43636	-1644.0359	-1109.3599	204.0219	-1599.4662	-1063.5146	172.87073	-1625.8273	-1054.141	262.16254	-1634.8711	-1352.7522	235.15833	1003.9562	-1281.3423	227.36725	1052.399	-1322.8536	194.01447	1020.9038	-1284.5975	287.78214	1052.9303	814.00476	187.68816	1209.5411	892.78986	179.17517	1178.6432	844.57294	145.43074	1198.3569	861.25043	292.46191	1168.394	1115.9376	209.91545	-1401.7417	1056.3928	194.03545	-1460.0758	1095.2155	162.32428	-1423.8593	1069.7954	238.84282	-1425.854	-1204.691	1686.1262	-1562.942	-1129.1729	1688.2158	-1605.906	-1173.0674	1724.3268	-1581.9485	-1133.5266	1581.0637	-1603.5029	-1239.5787	1699.0691	1119.4142	-1308.3899	1699.6195	1070.3722	-1270.4673	1736.3267	1096.8973	-1245.6216	1592.7992	1110.7003	988.97296	1664.2953	1162.2936	957.39532	1700.5427	1183.8147	922.07465	1662.2599	1214.9019	939.85828	1659.3933	1159.9348	999.31677	1668.4314	-1579.3158	1059.0725	1670.1996	-1518.6221	1025.1565	1708.0427	-1551.1135	1059.4352	1672.1486	-1585.3704	392.99567	1170.2252	-32.92157	395.59421	1172.3894	-116.89527	396.33463	1208.4417	-69.448753	427.02393	1169.4497	-69.174568	346.55408	1174.6552	-71.020897																																														-1068.4757	210.00505	-1625.0718	-1073.6393	248.65373	-1624.2854	-1321.5828	231.75763	1025.1007	-1320.2784	270.49704	1029.4083	847.91388	184.02415	1196.2426	851.27246	222.82109	1194.1171	1088.8152	202.68217	-1428.3125	1082.7427	240.97409	-1432.5381	-1171.8514	1687.0348	-1581.6251	-1170.5806	1648.057	-1581.2871	-1270.901	1699.3196	1097.0906	-1271.3582	1660.3229	1097.2943	952.87946	1705.7263	1186.8922	972.83948	1733.8903	1168.7435	1026.7001	1669.2417	-1551.5026	1028.2501	1630.2744	-1551.8933	394.15775	1171.193	-70.476036	391.88327	1132.2742	-71.549385
467	3.8833333	-1038.228	214.45699	-1644.0509	-1109.338	204.01706	-1599.4849	-1063.5282	172.87999	-1625.8424	-1054.1039	262.11295	-1634.9197	-1352.7858	235.08562	1003.9377	-1281.3657	227.30017	1052.3915	-1322.8273	193.95425	1020.924	-1284.5122	287.81818	1052.8558	814.09894	187.81145	1209.5945	892.39795	178.56044	1179.1708	844.49127	145.40828	1198.3553	861.20361	292.51627	1168.4962	1115.9467	209.93512	-1401.7627	1056.3732	193.98276	-1460.038	1095.2361	162.31845	-1423.8304	1069.8662	238.84085	-1425.8396	-1204.6876	1686.1217	-1562.9351	-1129.1444	1688.245	-1605.9418	-1173.0801	1724.3424	-1581.9465	-1133.5337	1581.0845	-1603.5216	-1239.5731	1699.0789	1119.4189	-1308.4905	1699.5664	1070.5045	-1270.4087	1736.2284	1096.8678	-1245.601	1592.7744	1110.6971	988.92688	1664.2565	1162.2878	957.35822	1700.4855	1183.8168	921.98566	1662.4069	1214.9709	939.80402	1659.4404	1159.9131	999.30939	1668.4448	-1579.3368	1059.0751	1670.2131	-1518.6245	1025.1479	1708.0447	-1551.1122	1059.4296	1672.2031	-1585.4794	392.99701	1170.2419	-32.897007	395.60318	1172.401	-116.89646	396.34314	1208.4503	-69.440857	427.09082	1169.3641	-69.150467	346.53561	1174.6699	-71.037399																																														-1068.5007	210.01253	-1625.0784	-1073.6764	248.65941	-1624.2832	-1321.5619	231.68193	1025.121	-1320.2627	270.4213	1029.4305	848.23749	183.77797	1196.3296	852.02209	222.53993	1194.2832	1088.8105	202.66873	-1428.3073	1082.714	240.95432	-1432.5552	-1171.851	1687.0446	-1581.6289	-1170.5665	1648.0671	-1581.297	-1270.8965	1699.3004	1097.1871	-1271.4115	1660.3053	1097.5243	952.71466	1705.8143	1186.9836	972.65594	1733.9833	1168.8214	1026.7009	1669.2552	-1551.5112	1028.2612	1630.2885	-1551.9124	394.1626	1171.2075	-70.465714	391.88394	1132.2889	-71.53669
468	3.8916667	-1038.2068	214.45148	-1644.0569	-1109.3586	203.91466	-1599.4073	-1063.5328	172.87082	-1625.8195	-1054.1196	262.11105	-1634.9069	-1352.7025	235.20566	1003.9526	-1281.3214	227.313	1052.3475	-1322.8494	193.99605	1020.9423	-1284.4664	287.88705	1052.8276	814.01489	187.81897	1209.576	892.33478	178.51523	1179.1023	844.5744	145.35759	1198.4196	861.32764	292.50381	1168.3136	1115.9412	209.91455	-1401.764	1056.3989	193.98694	-1460.0631	1095.2158	162.34627	-1423.8196	1069.859	238.86372	-1425.8823	-1204.6985	1686.1132	-1562.9218	-1129.153	1688.2384	-1605.9177	-1173.0746	1724.334	-1581.936	-1133.5197	1581.0526	-1603.4994	-1239.5778	1699.0603	1119.4139	-1308.479	1699.522	1070.4313	-1270.4253	1736.2666	1096.8811	-1245.5621	1592.7039	1110.6539	988.9007	1664.2216	1162.2739	957.31482	1700.5188	1183.7803	922.13	1662.2709	1214.9314	939.84369	1659.4047	1159.9021	999.32886	1668.4528	-1579.3331	1059.0798	1670.1952	-1518.6208	1025.1621	1708.0365	-1551.1068	1059.4395	1672.1649	-1585.3636	393.00687	1170.215	-32.891426	395.60098	1172.3776	-116.89076	396.28943	1208.3729	-69.447166	427.03543	1169.4496	-69.156822	346.55524	1174.6501	-71.011169																																														-1068.5294	209.96103	-1625.0287	-1073.7349	248.60327	-1624.205	-1321.4987	231.75543	1025.1082	-1320.1128	270.49573	1029.3821	848.28705	183.74771	1196.2408	852.03528	222.50482	1194.0414	1088.8285	202.66187	-1428.3105	1082.7623	240.95041	-1432.5757	-1171.8453	1687.0372	-1581.6196	-1170.5607	1648.0598	-1581.2891	-1270.8748	1699.2699	1097.1646	-1271.3485	1660.2739	1097.4631	952.84601	1705.6543	1186.823	972.76813	1733.7924	1168.5923	1026.7073	1669.2511	-1551.5142	1028.2596	1630.2842	-1551.9235	394.16736	1171.1824	-70.470184	391.9465	1132.2605	-71.540833
469	3.9	-1038.2035	214.49083	-1644.0868	-1109.3768	203.88547	-1599.4093	-1063.6372	173.04489	-1625.895	-1054.1324	262.16537	-1634.8705	-1352.8131	235.1756	1003.9533	-1281.3715	227.36194	1052.4088	-1322.8698	193.96323	1020.9357	-1284.3772	287.88974	1052.7698	814.07751	187.67851	1209.5366	892.83215	179.16829	1178.6616	844.54065	145.49324	1198.2809	861.26184	292.4386	1168.343	1115.9325	209.9212	-1401.766	1056.3641	194.09854	-1460.1406	1095.2437	162.37846	-1423.7788	1069.8458	238.8477	-1425.8728	-1204.6808	1686.1038	-1562.9261	-1129.1459	1688.2629	-1605.9391	-1173.0732	1724.3274	-1581.95	-1133.9948	1581.0763	-1603.759	-1239.5796	1699.069	1119.4154	-1309.3573	1698.8473	1071.9495	-1270.4203	1736.2471	1096.8689	-1245.5851	1592.7844	1110.6892	988.93304	1664.2666	1162.2988	957.33093	1700.5385	1183.7825	922.05737	1662.3777	1214.9885	939.86804	1659.415	1159.8994	999.34094	1668.4366	-1579.3157	1059.0878	1670.2014	-1518.6293	1025.172	1708.0492	-1551.1051	1059.4407	1672.157	-1585.3562	393.02017	1170.2499	-32.892811	395.60056	1172.384	-116.88737	396.32919	1208.421	-69.442642	427.03561	1169.4639	-69.14048	346.54413	1174.642	-71.024498																																														-1068.5858	209.96359	-1625.0148	-1073.7659	248.60709	-1624.0936	-1321.5839	231.76001	1025.1346	-1320.2659	270.49942	1029.4384	847.91589	184.02194	1196.2706	851.31476	222.82076	1194.2461	1088.9053	202.74219	-1428.2513	1082.8911	241.04126	-1432.4954	-1171.8276	1687.0427	-1581.634	-1170.5255	1648.0659	-1581.3041	-1271.0682	1698.9689	1097.9954	-1271.7456	1659.9926	1099.1733	952.76593	1705.7778	1186.8857	972.68127	1733.9241	1168.6603	1026.7225	1669.2454	-1551.5033	1028.2797	1630.2784	-1551.9031	394.17407	1171.2041	-70.45446	391.92035	1132.2837	-71.512596
